# xmcd CD database file
#
# Track frame offsets:
#	150
#	22472
#	34603
#	54210
#	69221
#	87655
#	102347
#	123104
#	138500
#	161172
#
# Disc length: 2369 seconds
#
# Revision: 4
# Processed by: cddbd v1.5.2PL0 Copyright (c) Steve Scherf et al.
# Submitted via: CDex 1.70beta2
#
DISCID=85093f0a
DTITLE=Kagrra, - Core
DYEAR=2008
DGENRE=Rock
TTITLE0=彩の讃歌
TTITLE1=雨情
TTITLE2=四月一日
TTITLE3=斬帝
TTITLE4=忘却の果ての凍えた孤独
TTITLE5=賽
TTITLE6=風の記憶
TTITLE7=神風
TTITLE8=雪恋詩
TTITLE9=新・百鬼夜行
EXTD=YEAR: 2008
EXTT0=
EXTT1=
EXTT2=
EXTT3=
EXTT4=
EXTT5=
EXTT6=
EXTT7=
EXTT8=
EXTT9=
PLAYORDER=
